<svg width="1024" height="1024" viewBox="0 0 1024 1024" fill="none" xmlns="http://www.w3.org/2000/svg">
<path d="M284 576C286.209 576 288 577.791 288 580V732C288 734.209 289.791 736 292 736H444.124C446.333 736 448.124 737.791 448.124 740V764C448.124 766.209 446.333 768 444.124 768H260C257.791 768 256 766.209 256 764V580C256 577.791 257.791 576 260 576H284ZM768 764C768 766.209 766.209 768 764 768H580.374C578.165 768 576.374 766.209 576.374 764V740C576.374 737.791 578.165 736 580.374 736H732C734.209 736 736 734.209 736 732V580C736 577.791 737.791 576 740 576H764C766.209 576 768 577.791 768 580V764ZM444.124 256C446.333 256 448.124 257.791 448.124 260V284C448.124 286.209 446.333 288 444.124 288H292C289.791 288 288 289.791 288 292V444C288 446.209 286.209 448 284 448H260C257.791 448 256 446.209 256 444V260C256 257.791 257.791 256 260 256H444.124ZM768 444C768 446.209 766.209 448 764 448H740C737.791 448 736 446.209 736 444V292C736 289.791 734.209 288 732 288H580.374C578.165 288 576.374 286.209 576.374 284V260C576.374 257.791 578.165 256 580.374 256H764C766.209 256 768 257.791 768 260V444Z" fill="white"/>
</svg>
