<svg width="1024" height="1024" viewBox="0 0 1024 1024" fill="none" xmlns="http://www.w3.org/2000/svg">
<path d="M256 489.5C256 487.291 257.791 485.5 260 485.5H284C286.209 485.5 288 487.291 288 489.5V641.5C288 643.709 289.791 645.5 292 645.5H444C446.209 645.5 448 647.291 448 649.5V673.5C448 675.709 446.209 677.5 444 677.5H260C257.791 677.5 256 675.709 256 673.5V489.5ZM768 673.5C768 675.709 766.209 677.5 764 677.5H580C577.791 677.5 576 675.709 576 673.5V649.5C576 647.291 577.791 645.5 580 645.5H732C734.209 645.5 736 643.709 736 641.5V489.5C736 487.291 737.791 485.5 740 485.5H764C766.209 485.5 768 487.291 768 489.5V673.5ZM444 165.5C446.209 165.5 448 167.291 448 169.5V193.5C448 195.709 446.209 197.5 444 197.5H292C289.791 197.5 288 199.291 288 201.5V353.5C288 355.709 286.209 357.5 284 357.5H260C257.791 357.5 256 355.709 256 353.5V169.5C256 167.291 257.791 165.5 260 165.5H444ZM768 353.5C768 355.709 766.209 357.5 764 357.5H740C737.791 357.5 736 355.709 736 353.5V201.5C736 199.291 734.209 197.5 732 197.5H580C577.791 197.5 576 195.709 576 193.5V169.5C576 167.291 577.791 165.5 580 165.5H764C766.209 165.5 768 167.291 768 169.5V353.5Z" fill="white"/>
<path d="M82.8346 834.5V767.3H89.9386V828.356H127.571V834.5H82.8346ZM137.926 834.5V784.1H144.742V834.5H137.926ZM141.382 772.964C139.974 772.964 138.79 772.484 137.83 771.524C136.87 770.564 136.39 769.412 136.39 768.068C136.39 766.724 136.87 765.604 137.83 764.708C138.79 763.748 139.974 763.268 141.382 763.268C142.79 763.268 143.974 763.716 144.934 764.612C145.894 765.508 146.374 766.628 146.374 767.972C146.374 769.38 145.894 770.564 144.934 771.524C144.038 772.484 142.854 772.964 141.382 772.964ZM163.707 834.5V784.1H170.235V797.732L169.179 795.332C170.715 791.684 173.179 788.836 176.571 786.788C180.027 784.676 184.091 783.62 188.763 783.62C193.691 783.62 197.883 784.868 201.339 787.364C204.795 789.796 207.035 793.476 208.059 798.404L205.371 797.348C206.843 793.252 209.435 789.956 213.147 787.46C216.923 784.9 221.435 783.62 226.683 783.62C230.779 783.62 234.331 784.42 237.339 786.02C240.411 787.556 242.779 789.924 244.443 793.124C246.171 796.324 247.035 800.356 247.035 805.22V834.5H240.219V805.892C240.219 800.58 238.939 796.58 236.379 793.892C233.883 791.14 230.331 789.764 225.723 789.764C222.267 789.764 219.259 790.5 216.699 791.972C214.203 793.38 212.251 795.46 210.843 798.212C209.499 800.9 208.827 804.164 208.827 808.004V834.5H202.011V805.892C202.011 800.58 200.731 796.58 198.171 793.892C195.611 791.14 192.027 789.764 187.419 789.764C184.027 789.764 181.051 790.5 178.491 791.972C175.931 793.38 173.947 795.46 172.539 798.212C171.195 800.9 170.523 804.164 170.523 808.004V834.5H163.707ZM286.928 834.98C281.68 834.98 277.072 833.892 273.104 831.716C269.136 829.476 266.032 826.436 263.792 822.596C261.552 818.692 260.432 814.244 260.432 809.252C260.432 804.26 261.488 799.844 263.6 796.004C265.776 792.164 268.72 789.156 272.432 786.98C276.208 784.74 280.432 783.62 285.104 783.62C289.84 783.62 294.032 784.708 297.68 786.884C301.392 788.996 304.304 792.004 306.416 795.908C308.528 799.748 309.584 804.196 309.584 809.252C309.584 809.572 309.552 809.924 309.488 810.308C309.488 810.628 309.488 810.98 309.488 811.364H265.616V806.276H305.84L303.152 808.292C303.152 804.644 302.352 801.412 300.752 798.596C299.216 795.716 297.104 793.476 294.416 791.876C291.728 790.276 288.624 789.476 285.104 789.476C281.648 789.476 278.544 790.276 275.792 791.876C273.04 793.476 270.896 795.716 269.36 798.596C267.824 801.476 267.056 804.772 267.056 808.484V809.54C267.056 813.38 267.888 816.772 269.552 819.716C271.28 822.596 273.648 824.868 276.656 826.532C279.728 828.132 283.216 828.932 287.12 828.932C290.192 828.932 293.04 828.388 295.664 827.3C298.352 826.212 300.656 824.548 302.576 822.308L306.416 826.724C304.176 829.412 301.36 831.46 297.968 832.868C294.64 834.276 290.96 834.98 286.928 834.98ZM323.457 834.5V784.1H329.985V797.924L328.929 795.332C330.529 791.684 333.089 788.836 336.609 786.788C340.129 784.676 344.321 783.62 349.185 783.62C353.281 783.62 356.865 784.42 359.937 786.02C363.073 787.556 365.505 789.924 367.233 793.124C369.025 796.324 369.921 800.356 369.921 805.22V834.5H363.105V805.892C363.105 800.58 361.761 796.58 359.073 793.892C356.449 791.14 352.737 789.764 347.937 789.764C344.353 789.764 341.217 790.5 338.529 791.972C335.905 793.38 333.857 795.46 332.385 798.212C330.977 800.9 330.273 804.164 330.273 808.004V834.5H323.457ZM414.897 834.5V767.3H460.977V773.444H422.001V834.5H414.897ZM421.233 805.988V799.844H456.753V805.988H421.233ZM473.27 834.5V784.1H479.798V797.828L479.126 795.428C480.534 791.588 482.902 788.676 486.23 786.692C489.558 784.644 493.686 783.62 498.614 783.62V790.244C498.358 790.244 498.102 790.244 497.846 790.244C497.59 790.18 497.334 790.148 497.078 790.148C491.766 790.148 487.606 791.78 484.598 795.044C481.59 798.244 480.086 802.82 480.086 808.772V834.5H473.27ZM539.447 834.5V823.364L539.159 821.54V802.916C539.159 798.628 537.943 795.332 535.511 793.028C533.143 790.724 529.591 789.572 524.855 789.572C521.591 789.572 518.487 790.116 515.543 791.204C512.599 792.292 510.103 793.732 508.055 795.524L504.983 790.436C507.543 788.26 510.615 786.596 514.199 785.444C517.783 784.228 521.559 783.62 525.527 783.62C532.055 783.62 537.079 785.252 540.599 788.516C544.183 791.716 545.975 796.612 545.975 803.204V834.5H539.447ZM522.071 834.98C518.295 834.98 514.999 834.372 512.183 833.156C509.431 831.876 507.319 830.148 505.847 827.972C504.375 825.732 503.639 823.172 503.639 820.292C503.639 817.668 504.247 815.3 505.463 813.188C506.743 811.012 508.791 809.284 511.607 808.004C514.487 806.66 518.327 805.988 523.127 805.988H540.503V811.076H523.319C518.455 811.076 515.063 811.94 513.143 813.668C511.287 815.396 510.359 817.54 510.359 820.1C510.359 822.98 511.479 825.284 513.719 827.012C515.959 828.74 519.095 829.604 523.127 829.604C526.967 829.604 530.263 828.74 533.015 827.012C535.831 825.22 537.879 822.66 539.159 819.332L540.695 824.036C539.415 827.364 537.175 830.02 533.975 832.004C530.839 833.988 526.871 834.98 522.071 834.98ZM564.488 834.5V784.1H571.016V797.732L569.96 795.332C571.496 791.684 573.96 788.836 577.352 786.788C580.808 784.676 584.872 783.62 589.544 783.62C594.472 783.62 598.664 784.868 602.12 787.364C605.576 789.796 607.816 793.476 608.84 798.404L606.152 797.348C607.624 793.252 610.216 789.956 613.928 787.46C617.704 784.9 622.216 783.62 627.464 783.62C631.56 783.62 635.112 784.42 638.12 786.02C641.192 787.556 643.56 789.924 645.224 793.124C646.952 796.324 647.816 800.356 647.816 805.22V834.5H641V805.892C641 800.58 639.72 796.58 637.16 793.892C634.664 791.14 631.112 789.764 626.504 789.764C623.048 789.764 620.04 790.5 617.48 791.972C614.984 793.38 613.032 795.46 611.624 798.212C610.28 800.9 609.608 804.164 609.608 808.004V834.5H602.792V805.892C602.792 800.58 601.512 796.58 598.952 793.892C596.392 791.14 592.808 789.764 588.2 789.764C584.808 789.764 581.832 790.5 579.272 791.972C576.712 793.38 574.728 795.46 573.32 798.212C571.976 800.9 571.304 804.164 571.304 808.004V834.5H564.488ZM687.709 834.98C682.461 834.98 677.853 833.892 673.885 831.716C669.917 829.476 666.813 826.436 664.573 822.596C662.333 818.692 661.213 814.244 661.213 809.252C661.213 804.26 662.269 799.844 664.381 796.004C666.557 792.164 669.501 789.156 673.213 786.98C676.989 784.74 681.213 783.62 685.885 783.62C690.621 783.62 694.813 784.708 698.461 786.884C702.173 788.996 705.085 792.004 707.197 795.908C709.309 799.748 710.365 804.196 710.365 809.252C710.365 809.572 710.333 809.924 710.269 810.308C710.269 810.628 710.269 810.98 710.269 811.364H666.397V806.276H706.621L703.933 808.292C703.933 804.644 703.133 801.412 701.533 798.596C699.997 795.716 697.885 793.476 695.197 791.876C692.509 790.276 689.405 789.476 685.885 789.476C682.429 789.476 679.325 790.276 676.573 791.876C673.821 793.476 671.677 795.716 670.141 798.596C668.605 801.476 667.837 804.772 667.837 808.484V809.54C667.837 813.38 668.669 816.772 670.333 819.716C672.061 822.596 674.429 824.868 677.437 826.532C680.509 828.132 683.997 828.932 687.901 828.932C690.973 828.932 693.821 828.388 696.445 827.3C699.133 826.212 701.437 824.548 703.357 822.308L707.197 826.724C704.957 829.412 702.141 831.46 698.749 832.868C695.421 834.276 691.741 834.98 687.709 834.98ZM733.573 834.5L714.565 784.1H721.093L738.373 830.852H735.397L753.157 784.1H759.013L776.581 830.852H773.605L791.173 784.1H797.413L778.309 834.5H771.877L754.981 790.532H756.997L740.005 834.5H733.573ZM826.814 834.98C821.95 834.98 817.566 833.892 813.662 831.716C809.822 829.476 806.782 826.436 804.542 822.596C802.302 818.692 801.182 814.244 801.182 809.252C801.182 804.196 802.302 799.748 804.542 795.908C806.782 792.068 809.822 789.06 813.662 786.884C817.502 784.708 821.886 783.62 826.814 783.62C831.806 783.62 836.222 784.708 840.062 786.884C843.966 789.06 847.006 792.068 849.182 795.908C851.422 799.748 852.542 804.196 852.542 809.252C852.542 814.244 851.422 818.692 849.182 822.596C847.006 826.436 843.966 829.476 840.062 831.716C836.158 833.892 831.742 834.98 826.814 834.98ZM826.814 828.932C830.462 828.932 833.694 828.132 836.51 826.532C839.326 824.868 841.534 822.564 843.134 819.62C844.798 816.612 845.63 813.156 845.63 809.252C845.63 805.284 844.798 801.828 843.134 798.884C841.534 795.94 839.326 793.668 836.51 792.068C833.694 790.404 830.494 789.572 826.91 789.572C823.326 789.572 820.126 790.404 817.31 792.068C814.494 793.668 812.254 795.94 810.59 798.884C808.926 801.828 808.094 805.284 808.094 809.252C808.094 813.156 808.926 816.612 810.59 819.62C812.254 822.564 814.494 824.868 817.31 826.532C820.126 828.132 823.294 828.932 826.814 828.932ZM866.457 834.5V784.1H872.985V797.828L872.313 795.428C873.721 791.588 876.089 788.676 879.417 786.692C882.745 784.644 886.873 783.62 891.801 783.62V790.244C891.545 790.244 891.289 790.244 891.033 790.244C890.777 790.18 890.521 790.148 890.265 790.148C884.953 790.148 880.793 791.78 877.785 795.044C874.777 798.244 873.273 802.82 873.273 808.772V834.5H866.457ZM909.614 821.444L909.806 812.708L941.198 784.1H949.55L927.374 805.316L923.534 808.58L909.614 821.444ZM904.238 834.5V763.268H911.054V834.5H904.238ZM943.31 834.5L922.286 808.292L926.702 803.012L951.662 834.5H943.31Z" fill="white"/>
</svg>
